<?xml version="1.0" standalone="no"?>
<!DOCTYPE svg PUBLIC "-//W3C//DTD SVG 20010904//EN"
 "http://www.w3.org/TR/2001/REC-SVG-20010904/DTD/svg10.dtd">
<svg version="1.0" xmlns="http://www.w3.org/2000/svg"
 width="512.000000pt" height="512.000000pt" viewBox="0 0 512.000000 512.000000"
 preserveAspectRatio="xMidYMid meet">

<g transform="translate(0.000000,512.000000) scale(0.100000,-0.100000)"
fill="#000000" stroke="none">
<path d="M2380 5114 c-19 -2 -78 -9 -130 -14 -330 -36 -695 -160 -990 -336
-375 -224 -680 -529 -904 -904 -175 -292 -291 -632 -338 -990 -16 -123 -16
-497 0 -620 82 -623 356 -1150 820 -1581 256 -239 575 -425 922 -539 274 -91
491 -124 800 -124 228 0 329 9 530 50 689 141 1304 583 1674 1204 175 292 291
632 338 990 16 123 16 497 0 620 -47 358 -163 698 -338 990 -224 375 -529 680
-904 904 -289 173 -634 291 -980 336 -88 12 -438 21 -500 14z m390 -305 c988
-90 1810 -829 2004 -1801 181 -904 -200 -1824 -966 -2331 -834 -553 -1930
-491 -2699 152 -955 798 -1081 2224 -280 3182 475 568 1199 866 1941 798z"/>
<path d="M2410 4514 c-14 -2 -65 -9 -115 -15 -769 -96 -1438 -690 -1630 -1448
-47 -187 -59 -284 -59 -491 0 -207 12 -304 59 -491 172 -678 726 -1232 1404
-1404 187 -47 284 -59 491 -59 207 0 304 12 491 59 674 171 1225 718 1400
1390 51 196 63 293 63 505 0 207 -12 304 -59 491 -171 674 -718 1225 -1390
1400 -60 15 -153 36 -205 44 -91 15 -397 28 -450 19z m311 -305 c205 -20 385
-71 564 -159 746 -364 1109 -1223 849 -2010 -238 -722 -956 -1198 -1703 -1132
-227 20 -407 69 -596 162 -746 364 -1109 1223 -849 2010 242 734 969 1207
1735 1129z"/>
<path d="M1834 3591 c-149 -43 -270 -167 -308 -317 -66 -257 103 -512 367
-554 241 -38 470 131 507 375 50 319 -254 585 -566 496z m196 -300 c47 -25 83
-93 76 -145 -8 -68 -64 -124 -132 -132 -52 -7 -120 29 -146 76 -24 43 -20 119
9 158 43 59 128 78 193 43z"/>
<path d="M3055 3596 c-223 -55 -370 -276 -335 -501 55 -358 493 -506 752 -253
119 116 164 280 120 440 -65 231 -304 372 -537 314z m193 -313 c89 -65 79
-199 -19 -251 -70 -38 -140 -20 -192 49 -47 63 -20 171 53 211 43 24 119 20
158 -9z"/>
<path d="M1880 2399 c-171 -29 -322 -174 -359 -347 -49 -234 95 -467 325 -526
310 -79 603 185 554 499 -29 191 -182 345 -370 375 -73 11 -74 11 -150 -1z
m159 -316 c69 -52 87 -122 49 -192 -52 -98 -186 -108 -251 -19 -29 39 -33 115
-9 158 40 73 148 100 211 53z"/>
<path d="M3080 2399 c-178 -29 -331 -188 -360 -374 -36 -230 120 -455 348
-504 317 -67 598 214 531 531 -38 177 -188 319 -369 347 -73 12 -74 12 -150 0z
m150 -312 c71 -37 98 -115 66 -191 -37 -90 -166 -115 -235 -46 -59 59 -64 141
-14 201 51 60 114 73 183 36z"/>
</g>
</svg>
