<?xml version="1.0" standalone="no"?>
<!DOCTYPE svg PUBLIC "-//W3C//DTD SVG 20010904//EN"
 "http://www.w3.org/TR/2001/REC-SVG-20010904/DTD/svg10.dtd">
<svg version="1.0" xmlns="http://www.w3.org/2000/svg"
 width="512.000000pt" height="512.000000pt" viewBox="0 0 512.000000 512.000000"
 preserveAspectRatio="xMidYMid meet">

<g transform="translate(0.000000,512.000000) scale(0.100000,-0.100000)"
fill="#000000" stroke="none">
<path d="M501 4994 c-182 -49 -343 -217 -380 -396 -8 -37 -11 -479 -9 -1478
l3 -1425 22 -60 c64 -168 212 -299 384 -340 40 -9 114 -15 196 -15 l132 0 3
-507 3 -508 25 -45 c38 -67 96 -103 174 -108 77 -5 126 17 182 81 22 25 226
279 454 565 l415 521 1240 3 1240 3 64 23 c155 56 276 175 334 329 l22 58 3
1425 c2 999 -1 1441 -9 1478 -28 135 -140 283 -265 349 -127 68 29 63 -2179
62 -1713 0 -2008 -2 -2054 -15z m4115 -226 c76 -40 107 -70 145 -140 l34 -63
0 -1415 0 -1415 -24 -53 c-29 -64 -112 -143 -178 -168 -46 -18 -111 -19 -1313
-24 -696 -3 -1272 -8 -1280 -13 -8 -4 -220 -264 -470 -577 l-455 -569 -5 542
c-4 394 -8 548 -17 563 -27 47 -35 49 -262 55 -171 5 -226 9 -264 23 -65 25
-149 103 -178 168 l-24 53 0 1415 0 1415 23 45 c12 25 35 61 51 81 31 37 114
87 165 100 17 4 924 6 2016 6 l1985 -2 51 -27z"/>
<path d="M1099 4021 c-47 -48 -37 -130 21 -164 25 -15 94 -17 745 -17 796 0
762 -3 791 67 19 43 5 93 -33 123 -25 20 -39 20 -760 20 l-735 0 -29 -29z"/>
<path d="M1099 3381 c-47 -48 -37 -130 21 -164 26 -16 141 -17 1440 -17 1299
0 1414 1 1440 17 58 34 68 116 21 164 l-29 29 -1432 0 -1432 0 -29 -29z"/>
<path d="M1099 2741 c-47 -48 -37 -130 21 -164 26 -16 141 -17 1440 -17 1299
0 1414 1 1440 17 58 34 68 116 21 164 l-29 29 -1432 0 -1432 0 -29 -29z"/>
</g>
</svg>
