<?xml version="1.0" standalone="no"?>
<!DOCTYPE svg PUBLIC "-//W3C//DTD SVG 20010904//EN"
 "http://www.w3.org/TR/2001/REC-SVG-20010904/DTD/svg10.dtd">
<svg version="1.0" xmlns="http://www.w3.org/2000/svg"
 width="512.000000pt" height="512.000000pt" viewBox="0 0 512.000000 512.000000"
 preserveAspectRatio="xMidYMid meet">

<g transform="translate(0.000000,512.000000) scale(0.100000,-0.100000)"
fill="#000000" stroke="none">
<path d="M2280 5029 c-29 -12 -67 -46 -83 -74 -7 -11 -14 -71 -17 -133 l-5
-114 -115 -29 c-91 -24 -255 -83 -347 -125 -6 -3 -38 31 -72 74 -33 44 -72 89
-87 101 -35 27 -85 36 -128 21 -38 -12 -410 -278 -438 -314 -28 -34 -40 -90
-29 -134 6 -21 37 -74 70 -117 l59 -80 -38 -41 c-53 -58 -150 -190 -195 -266
-21 -35 -44 -73 -51 -84 l-13 -22 -109 35 c-97 31 -113 34 -150 24 -75 -21
-90 -46 -170 -289 -80 -244 -88 -274 -78 -326 11 -58 55 -92 165 -126 l98 -31
-1 -202 c-1 -111 1 -226 4 -256 l5 -54 -102 -34 c-134 -45 -173 -83 -173 -169
0 -27 132 -459 144 -471 6 -6 140 45 143 54 2 5 -28 101 -66 211 l-69 202 99
31 c101 32 140 54 161 92 8 16 12 113 13 332 2 393 10 372 -178 430 -48 14
-87 29 -87 33 0 6 131 404 134 409 1 1 46 -12 101 -28 109 -34 159 -34 204 -1
14 10 56 68 92 128 37 60 104 155 150 212 154 189 159 218 54 354 -35 46 -62
84 -61 86 2 1 81 61 176 132 l173 130 61 -82 c104 -140 145 -153 293 -92 127
53 183 71 317 105 186 47 206 70 206 243 l0 106 195 2 c107 1 205 2 218 2 21
1 22 -2 27 -119 4 -105 8 -124 28 -153 31 -42 36 -44 182 -82 130 -34 207 -61
324 -112 131 -57 191 -37 276 92 29 44 57 80 62 80 5 0 88 -55 183 -123 l174
-124 -60 -83 c-99 -140 -100 -191 -6 -296 74 -82 164 -204 221 -303 79 -133
119 -148 272 -100 57 18 106 30 108 28 3 -3 36 -96 74 -207 l70 -202 -97 -30
c-185 -60 -177 -38 -176 -432 0 -390 -6 -373 171 -424 49 -14 90 -27 92 -29 2
-2 -27 -96 -63 -210 -37 -114 -63 -210 -58 -215 9 -8 135 -51 139 -47 1 1 34
101 74 222 58 179 71 229 68 266 -8 86 -45 115 -194 159 l-71 21 1 202 c1 111
-1 226 -4 256 l-5 54 95 32 c107 35 127 46 155 83 38 51 28 121 -54 370 -81
246 -97 272 -174 293 -37 10 -51 8 -137 -21 -52 -18 -100 -34 -106 -36 -7 -3
-28 24 -48 60 -46 83 -145 216 -213 288 l-54 56 61 83 c33 46 65 100 71 121
12 47 -1 102 -33 139 -31 36 -378 286 -422 304 -82 35 -140 6 -220 -110 -33
-47 -60 -85 -60 -85 -1 0 -52 20 -115 45 -63 25 -172 59 -242 77 l-127 31 -4
118 c-3 127 -11 148 -72 193 -26 20 -42 21 -294 23 -164 1 -277 -2 -292 -8z"/>
<path d="M2410 4314 c-19 -2 -78 -11 -130 -20 -502 -87 -939 -417 -1160 -879
-90 -188 -142 -384 -156 -592 l-7 -103 80 0 80 0 7 95 c25 354 168 668 421
920 209 210 459 343 752 402 111 22 393 24 503 4 300 -54 561 -191 775 -406
252 -251 396 -565 421 -917 l7 -98 80 0 80 0 -7 103 c-50 728 -573 1323 -1291
1467 -97 20 -372 34 -455 24z"/>
<path d="M1865 3415 l-25 -24 0 -416 0 -415 -455 0 -456 0 -24 -25 -25 -24 0
-416 0 -415 80 0 80 0 0 360 0 360 400 0 400 0 0 -280 0 -280 80 0 80 0 0 720
0 720 560 0 560 0 0 -720 0 -720 80 0 80 0 0 280 0 280 400 0 400 0 0 -360 0
-360 80 0 80 0 0 415 0 416 -25 24 -24 25 -456 0 -455 0 0 415 0 416 -25 24
-24 25 -671 0 -671 0 -24 -25z"/>
<path d="M2200 2920 l0 -120 120 0 120 0 0 120 0 120 -120 0 -120 0 0 -120z"/>
<path d="M2680 2920 l0 -120 120 0 120 0 0 120 0 120 -120 0 -120 0 0 -120z"/>
<path d="M2200 2440 l0 -120 120 0 120 0 0 120 0 120 -120 0 -120 0 0 -120z"/>
<path d="M2680 2440 l0 -120 120 0 120 0 0 120 0 120 -120 0 -120 0 0 -120z"/>
<path d="M1200 2080 l0 -80 80 0 80 0 0 80 0 80 -80 0 -80 0 0 -80z"/>
<path d="M1520 2080 l0 -80 80 0 80 0 0 80 0 80 -80 0 -80 0 0 -80z"/>
<path d="M3440 2080 l0 -80 80 0 80 0 0 80 0 80 -80 0 -80 0 0 -80z"/>
<path d="M3760 2080 l0 -80 80 0 80 0 0 80 0 80 -80 0 -80 0 0 -80z"/>
<path d="M2417 2056 c-155 -65 -257 -212 -257 -371 0 -103 69 -256 136 -300
34 -22 30 -31 -14 -39 -111 -17 -252 -130 -310 -249 l-32 -65 -74 37 -73 36
38 40 c60 63 84 126 84 220 0 68 -4 89 -28 137 -116 236 -458 236 -574 0 -24
-48 -28 -69 -28 -137 1 -96 26 -162 85 -220 l38 -37 -68 -34 c-38 -19 -85 -54
-109 -79 l-40 -44 -58 35 c-31 18 -61 34 -66 34 -5 0 3 14 18 31 68 82 89 175
61 274 -23 77 -98 154 -175 180 -73 24 -164 17 -225 -19 -158 -93 -191 -291
-72 -433 l25 -30 -40 -18 c-55 -25 -112 -83 -146 -147 l-28 -53 -3 -257 -3
-257 25 -26 25 -25 296 0 c259 0 295 -2 295 -15 0 -9 11 -27 25 -40 l24 -25
376 0 c332 0 375 -2 375 -15 0 -9 11 -27 25 -40 l24 -25 591 0 591 0 24 25
c14 13 25 31 25 40 0 13 43 15 375 15 l376 0 24 25 c14 13 25 31 25 40 0 13
36 15 295 15 l296 0 25 25 25 25 -3 253 c-3 249 -3 253 -30 309 -30 65 -89
127 -147 153 l-40 18 25 30 c67 80 88 174 60 272 -23 77 -98 154 -175 180 -73
24 -164 17 -225 -19 -159 -93 -191 -291 -71 -435 15 -17 23 -31 18 -31 -5 0
-35 -16 -66 -34 l-58 -35 -40 44 c-24 25 -71 60 -109 79 l-68 34 38 37 c59 58
84 124 85 220 0 68 -4 89 -28 137 -116 236 -458 236 -574 0 -24 -48 -28 -69
-28 -137 0 -94 24 -157 84 -220 l38 -40 -73 -36 -74 -37 -32 65 c-58 119 -199
232 -310 249 -44 8 -48 17 -14 39 67 44 136 197 136 300 0 109 -61 237 -147
309 -17 14 -58 39 -90 54 -48 22 -74 27 -153 30 -82 2 -103 -1 -153 -22z m217
-148 c55 -16 138 -99 154 -154 28 -94 8 -169 -63 -239 -101 -102 -229 -102
-330 0 -102 101 -102 229 0 330 70 71 145 90 239 63z m-971 -402 c104 -43 128
-175 47 -256 -66 -66 -156 -67 -221 -1 -124 123 13 325 174 257z m1920 0 c104
-43 128 -175 47 -256 -66 -66 -156 -67 -221 -1 -124 123 13 325 174 257z
m-2619 -185 c26 -27 31 -39 31 -81 0 -43 -5 -54 -33 -82 -28 -28 -39 -33 -82
-33 -43 0 -54 5 -82 33 -28 28 -33 39 -33 81 0 52 25 92 70 112 37 16 96 3
129 -30z m3360 0 c26 -27 31 -39 31 -81 0 -43 -5 -54 -33 -82 -28 -28 -39 -33
-82 -33 -43 0 -54 5 -82 33 -28 28 -33 39 -33 81 0 52 25 92 70 112 37 16 96
3 129 -30z m-1474 -149 c71 -35 114 -75 151 -144 l34 -63 3 -362 3 -363 -481
0 -481 0 3 363 3 362 25 50 c42 86 124 153 215 176 17 4 131 7 255 6 211 -2
228 -4 270 -25z m-1096 -224 c55 -16 138 -99 154 -154 8 -27 12 -117 12 -258
l0 -216 -320 0 -320 0 0 216 c0 141 4 231 12 258 15 51 99 137 148 153 48 15
263 16 314 1z m1920 0 c55 -16 138 -99 154 -154 8 -27 12 -117 12 -258 l0
-216 -320 0 -320 0 0 216 c0 141 4 231 12 258 15 51 99 137 148 153 48 15 263
16 314 1z m-2628 -94 c66 -49 69 -58 72 -265 l3 -189 -240 0 -241 0 0 174 c0
181 6 214 43 255 41 44 72 51 209 49 110 -3 130 -6 154 -24z m3360 0 c66 -49
69 -58 72 -265 l3 -189 -240 0 -241 0 0 174 c0 181 6 214 43 255 41 44 72 51
209 49 110 -3 130 -6 154 -24z"/>
</g>
</svg>
