<?xml version="1.0" standalone="no"?>
<!DOCTYPE svg PUBLIC "-//W3C//DTD SVG 20010904//EN"
 "http://www.w3.org/TR/2001/REC-SVG-20010904/DTD/svg10.dtd">
<svg version="1.0" xmlns="http://www.w3.org/2000/svg"
 width="512.000000pt" height="512.000000pt" viewBox="0 0 512.000000 512.000000"
 preserveAspectRatio="xMidYMid meet">

<g transform="translate(0.000000,512.000000) scale(0.100000,-0.100000)"
fill="#000000" stroke="none">
<path d="M2165 4870 c-362 -22 -901 -93 -967 -126 -34 -18 -46 -59 -27 -92 24
-43 41 -47 126 -34 426 66 584 84 898 102 479 28 1010 -2 1520 -86 296 -48
892 -172 936 -194 56 -28 125 -94 151 -145 19 -36 151 -535 144 -543 -2 -1
-88 13 -192 33 -104 20 -317 60 -474 90 -157 30 -337 64 -400 76 -103 19 -117
25 -139 51 -36 45 -94 68 -172 68 l-66 0 -7 47 c-7 52 -43 106 -86 128 -44 23
-348 21 -396 -1 -43 -21 -84 -88 -84 -137 l0 -37 -370 0 -370 0 0 37 c0 49
-41 116 -84 137 -47 22 -352 24 -395 1 -47 -24 -80 -71 -87 -125 l-7 -50 -66
0 c-78 0 -136 -23 -172 -68 -24 -30 -24 -30 -613 -142 -323 -61 -590 -110
-591 -108 -8 8 123 506 143 543 26 51 95 117 150 144 24 12 132 40 240 61 108
22 207 44 218 49 26 12 44 59 33 88 -4 12 -19 29 -33 38 -23 15 -36 14 -231
-25 -240 -47 -294 -66 -372 -125 -127 -96 -154 -154 -249 -541 -53 -215 -74
-321 -71 -349 4 -39 92 -288 122 -344 29 -56 98 -103 169 -114 36 -6 91 4 792
137 195 37 249 57 287 108 41 55 44 67 82 279 20 112 39 207 42 212 2 4 31 7
64 7 l59 0 0 -300 0 -300 -65 0 c-103 0 -174 -40 -216 -122 -10 -20 -191 -459
-401 -975 l-383 -938 0 -435 0 -435 24 -48 c25 -52 71 -92 128 -113 31 -11
235 -13 1074 -14 l1036 0 21 23 c29 31 29 77 -1 105 l-23 22 -1028 0 -1028 0
-29 29 -29 29 0 394 0 394 385 950 c242 596 393 956 406 967 20 16 86 17 1069
17 983 0 1049 -1 1069 -17 12 -11 77 -158 162 -368 78 -192 150 -360 162 -372
27 -31 71 -30 102 2 14 13 25 31 25 40 0 18 -267 681 -299 743 -42 82 -113
122 -216 122 l-65 0 0 300 0 300 59 0 c33 0 62 -3 64 -7 3 -5 22 -100 42 -212
20 -113 41 -214 47 -225 24 -48 62 -87 100 -107 57 -29 961 -200 1015 -192 70
11 139 58 168 114 30 56 118 305 122 344 3 28 -18 134 -71 349 -77 312 -102
384 -162 460 -41 53 -135 121 -198 145 -64 24 -791 170 -1021 206 -173 26
-367 49 -565 65 -169 14 -761 21 -935 10z m-125 -952 c0 -181 2 -195 23 -233
14 -26 37 -48 67 -62 44 -23 50 -23 430 -23 380 0 386 0 430 23 33 16 51 34
68 67 20 41 22 57 22 232 l0 188 135 0 135 0 -2 -392 -3 -393 -785 0 -785 0
-3 393 -2 392 135 0 135 0 0 -192z m890 -83 l0 -85 -370 0 -370 0 0 85 0 85
370 0 370 0 0 -85z m-1610 -32 c0 -4 -10 -61 -21 -128 -23 -129 -39 -170 -66
-179 -10 -3 -220 -44 -466 -90 -451 -85 -477 -88 -504 -55 -12 17 -97 239 -92
243 5 4 1110 214 1132 215 9 1 17 -2 17 -6z m3060 -100 c311 -58 567 -107 569
-109 5 -4 -80 -226 -92 -243 -27 -33 -53 -30 -499 54 -244 46 -453 87 -465 90
-33 8 -48 45 -72 180 -24 137 -24 135 -13 135 4 0 261 -48 572 -107z"/>
<path d="M2354 2936 c-369 -70 -673 -298 -840 -628 -24 -48 -44 -100 -44 -116
0 -53 62 -88 110 -62 10 5 39 52 65 102 133 270 364 457 663 540 65 18 104 22
252 22 148 0 187 -4 252 -22 375 -104 643 -374 740 -747 26 -102 35 -288 18
-392 -80 -502 -509 -873 -1009 -873 -561 0 -1021 460 -1021 1019 0 106 -11
134 -55 145 -35 9 -83 -18 -91 -50 -4 -15 -4 -83 -1 -153 24 -536 409 -978
952 -1093 82 -17 342 -17 430 1 452 90 807 425 921 868 32 122 43 320 25 443
-58 394 -300 725 -656 896 -168 81 -274 106 -475 110 -110 2 -188 -1 -236 -10z"/>
<path d="M2460 2613 c-133 -70 -160 -244 -55 -349 51 -51 99 -68 176 -62 79 6
134 43 172 117 73 145 -19 307 -181 319 -48 3 -66 -1 -112 -25z m147 -145 c46
-43 16 -118 -47 -118 -62 0 -92 71 -48 117 27 29 65 29 95 1z"/>
<path d="M1935 2309 c-16 -4 -46 -22 -67 -39 -103 -85 -104 -254 -2 -339 157
-129 393 7 359 208 -22 128 -159 209 -290 170z m124 -165 c12 -15 21 -34 21
-44 0 -10 -9 -29 -21 -44 -40 -50 -119 -21 -119 44 0 65 79 94 119 44z"/>
<path d="M3025 2301 c-86 -39 -129 -106 -129 -201 0 -71 14 -107 61 -154 137
-139 373 -42 373 154 0 159 -163 266 -305 201z m135 -151 c43 -43 11 -120 -49
-120 -32 0 -71 39 -71 70 0 10 9 29 21 44 25 32 70 35 99 6z"/>
<path d="M4080 2188 c-11 -12 -20 -32 -20 -44 0 -12 81 -221 180 -465 l180
-443 0 -394 0 -394 -29 -29 -29 -29 -622 0 c-386 0 -628 -4 -640 -10 -43 -23
-40 -116 5 -134 9 -3 299 -6 643 -6 498 1 635 4 665 14 57 21 103 61 128 113
l24 48 0 435 0 435 -182 443 c-100 244 -189 452 -199 463 -24 26 -78 25 -104
-3z"/>
<path d="M2471 2023 c-26 -9 -65 -36 -92 -63 -145 -145 -70 -386 132 -429 140
-30 284 74 304 220 26 185 -165 335 -344 272z m146 -153 c45 -27 62 -84 39
-132 -45 -94 -182 -75 -202 27 -11 61 42 124 106 125 14 0 39 -9 57 -20z"/>
<path d="M1915 1664 c-119 -65 -160 -198 -95 -311 73 -127 236 -148 340 -44
75 75 89 160 43 252 -41 80 -94 113 -186 116 -52 3 -80 -1 -102 -13z m145
-154 c27 -27 25 -66 -5 -95 -30 -30 -54 -31 -89 -4 -31 24 -35 72 -9 101 22
24 77 24 103 -2z"/>
<path d="M3030 1669 c-74 -30 -140 -123 -140 -200 0 -63 28 -126 76 -168 108
-95 264 -71 334 52 64 112 24 248 -92 308 -41 21 -135 25 -178 8z m132 -156
c28 -25 24 -77 -8 -102 -15 -12 -35 -21 -46 -21 -27 0 -68 45 -68 75 0 55 79
87 122 48z"/>
<path d="M2520 1360 c-183 -34 -243 -260 -100 -382 84 -72 196 -72 280 0 172
146 41 423 -180 382z m93 -172 c22 -26 22 -60 -1 -89 -26 -31 -78 -31 -104 0
-59 74 43 161 105 89z"/>
<path d="M905 795 c-14 -13 -25 -36 -25 -50 0 -14 11 -37 25 -50 l24 -25 246
0 246 0 24 25 c14 13 25 36 25 50 0 14 -11 37 -25 50 l-24 25 -246 0 -246 0
-24 -25z"/>
</g>
</svg>
