<?xml version="1.0" standalone="no"?>
<!DOCTYPE svg PUBLIC "-//W3C//DTD SVG 20010904//EN"
 "http://www.w3.org/TR/2001/REC-SVG-20010904/DTD/svg10.dtd">
<svg version="1.0" xmlns="http://www.w3.org/2000/svg"
 width="512.000000pt" height="512.000000pt" viewBox="0 0 512.000000 512.000000"
 preserveAspectRatio="xMidYMid meet">

<g transform="translate(0.000000,512.000000) scale(0.100000,-0.100000)"
fill="#000000" stroke="none">
<path d="M1270 4970 c-184 -82 -349 -157 -366 -166 -36 -18 -58 -57 -48 -86 3
-11 51 -83 106 -160 266 -370 436 -705 519 -1022 66 -257 63 -173 69 -1584 l5
-1284 24 -19 c32 -26 67 -24 97 6 l25 25 -4 1277 c-3 1168 -4 1287 -20 1383
-75 443 -249 838 -554 1258 -41 57 -73 105 -71 107 8 9 550 247 553 243 18
-18 555 -725 555 -730 0 -5 -22 -8 -48 -8 -35 0 -54 -6 -70 -20 -22 -21 -22
-25 -22 -336 l0 -315 -95 -569 c-73 -436 -95 -591 -95 -663 0 -333 235 -628
564 -709 l86 -21 0 -169 0 -168 -120 0 c-129 0 -162 -9 -179 -47 -16 -34 -14
-47 10 -77 20 -26 22 -26 155 -26 l134 0 0 -80 0 -80 -126 0 c-125 0 -126 0
-155 -29 -34 -35 -36 -59 -8 -95 20 -26 22 -26 155 -26 l134 0 0 -79 0 -79
-131 -4 c-129 -3 -131 -3 -155 -31 -29 -34 -30 -56 -3 -91 20 -26 22 -26 155
-26 l134 0 0 -160 0 -160 -390 0 -390 0 0 128 c0 121 -1 130 -23 150 -33 31
-80 29 -106 -4 -19 -25 -21 -40 -21 -201 0 -171 0 -174 25 -198 l24 -25 959 0
c951 0 958 0 980 20 l22 21 0 574 0 574 -26 20 c-35 27 -57 26 -91 -3 l-28
-24 -3 -516 -3 -516 -389 0 -390 0 0 80 0 80 129 0 c115 0 131 2 155 21 34 27
36 77 3 107 -21 20 -34 22 -155 22 l-132 0 0 80 0 80 129 0 c115 0 131 2 155
21 34 27 36 79 4 109 -20 18 -35 20 -155 20 l-133 0 0 80 0 80 129 0 c115 0
131 2 155 21 33 26 36 79 6 109 -18 18 -33 20 -155 20 l-135 0 0 80 0 80 129
0 c115 0 131 2 155 21 33 26 36 79 6 109 -18 18 -33 20 -155 20 l-135 0 0 93
0 94 80 17 c47 10 118 36 172 63 77 38 109 62 184 138 80 80 98 104 142 195
56 115 82 219 82 324 0 36 -43 322 -95 635 l-95 571 0 319 c0 373 3 362 -94
371 l-57 5 271 355 c150 195 277 361 284 368 10 10 26 7 84 -18 75 -32 102
-31 132 4 19 24 17 74 -6 95 -24 24 -200 101 -228 101 -30 0 -46 -16 -166
-173 l-104 -137 -109 0 c-101 0 -109 -2 -132 -25 -32 -31 -32 -69 0 -100 19
-20 34 -25 75 -25 l51 0 -61 -80 -61 -80 -110 0 c-103 0 -111 -1 -134 -25 -30
-29 -32 -64 -6 -96 14 -18 32 -25 74 -29 l56 -5 -51 -67 -50 -68 -199 0 -199
0 -48 61 c-26 33 -48 65 -50 70 -2 5 17 9 41 9 59 0 75 7 92 40 19 36 4 83
-31 99 -14 6 -71 11 -127 11 l-102 1 -58 77 -59 77 55 5 c60 6 82 19 91 55 7
29 -15 80 -39 89 -9 3 -63 6 -120 6 l-104 0 -111 145 c-111 144 -132 165 -167
165 -10 -1 -169 -68 -353 -150z m1680 -1145 l0 -235 -80 0 -80 0 0 58 c-1 107
-49 188 -134 228 -87 41 -179 28 -248 -34 -56 -50 -78 -102 -78 -184 l0 -68
-80 0 -80 0 0 235 0 235 390 0 390 0 0 -235z m-355 -81 c37 -14 45 -57 45
-228 0 -176 -6 -207 -47 -225 -37 -17 -62 -13 -88 14 -25 24 -25 26 -25 210 0
184 0 186 25 210 24 24 57 31 90 19z m-265 -371 c0 -82 25 -138 81 -187 106
-90 268 -63 343 57 23 38 30 62 34 122 l5 75 83 0 c82 0 82 0 88 -27 3 -16 44
-260 92 -543 96 -573 98 -612 51 -741 -36 -99 -73 -157 -151 -234 -112 -111
-244 -165 -401 -165 -145 0 -273 51 -382 153 -84 79 -137 159 -168 259 -40
128 -36 177 62 771 l88 527 87 0 88 0 0 -67z"/>
<path d="M2486 2335 c-90 -32 -145 -101 -153 -192 -7 -75 8 -123 56 -176 131
-146 366 -75 397 121 16 102 -58 217 -159 247 -62 18 -90 18 -141 0z m126
-165 c25 -26 29 -36 24 -63 -12 -63 -78 -87 -130 -46 -42 33 -32 109 17 129
38 15 58 11 89 -20z"/>
<path d="M3917 4898 c-26 -21 -37 -61 -24 -89 10 -19 115 -82 171 -102 4 -1
-15 -34 -45 -72 -279 -368 -480 -793 -558 -1182 -44 -222 -46 -268 -46 -1154
0 -819 1 -848 19 -868 23 -25 72 -28 104 -5 l22 15 0 752 c0 793 7 1003 40
1183 64 358 240 742 520 1134 152 213 152 213 145 240 -8 34 -18 40 -161 104
-127 58 -158 65 -187 44z"/>
</g>
</svg>
